<svg width="80" height="67" viewBox="0 0 80 67" fill="none" xmlns="http://www.w3.org/2000/svg">
<path d="M79.9148 0V22.1982H71.0371C71.0095 17.2691 68.3351 12.973 64.3665 10.6721C62.4089 9.53093 60.1403 8.87929 57.7139 8.87929C50.3858 8.87929 44.4347 14.8368 44.3965 22.1982V22.2719C44.3965 29.6683 50.3598 35.6634 57.7139 35.6634C60.1557 35.6634 62.4491 35.0033 64.4136 33.8483C65.5214 36.5874 67.0128 39.1351 68.8146 41.4201C65.5521 43.312 61.7609 44.3965 57.7139 44.3965C50.4536 44.3965 44.0055 40.9041 39.9585 35.5119C37.1686 31.8002 35.5188 27.1899 35.5188 22.1977C35.5188 17.2659 32.8402 12.9613 28.8535 10.6615C26.8965 9.52511 24.6205 8.87929 22.1988 8.87929C14.8426 8.87929 8.8793 14.8389 8.8793 22.1982C8.8793 29.5523 14.8426 35.5172 22.1988 35.5172C24.6199 35.5172 26.8959 34.8677 28.8535 33.7318C29.9639 36.5164 31.4685 39.1055 33.299 41.4207C30.0349 43.3126 26.2453 44.397 22.1993 44.397C12.5926 44.397 4.40363 38.288 1.32131 29.7398C0.466756 27.3828 0 24.844 0 22.1988C0 21.4465 0.037112 20.7048 0.113402 19.9784V0.000517374H22.1993C24.8451 0.000517374 27.3865 0.467274 29.7425 1.31971C30.9811 1.76208 32.1689 2.32155 33.299 2.97584C34.1111 3.43994 34.8883 3.96231 35.63 4.52866C37.2671 5.77155 38.723 7.23748 39.9585 8.88301C41.2178 7.20039 42.7134 5.70425 44.3965 4.44494C46.1422 3.13159 48.087 2.06937 50.1702 1.32024C52.5293 0.467808 55.0697 0.00105092 57.7133 0.00105092H79.9148V0Z" fill="#80CAA7"/>
<path d="M53.2768 53.0186L39.3942 66.5955L25.4395 53.062C28.1276 52.7484 30.7061 52.0978 33.1379 51.1362L39.3942 57.2362L45.6886 51.0303C48.0875 51.9993 50.631 52.6726 53.2768 53.0186Z" fill="#FAB515"/>
<path d="M22.199 19.0317C24.2758 19.0317 26.041 20.3514 26.7144 22.1966H31.225C31.225 19.1938 29.7596 16.5316 27.5043 14.8929V14.8882C26.0151 13.809 24.1825 13.1685 22.199 13.1685C17.2147 13.1685 13.1719 17.2102 13.1719 22.1966H17.6836C18.3564 20.3519 20.1217 19.0317 22.199 19.0317Z" fill="#333951"/>
<path d="M57.2616 19.0317C59.3394 19.0317 61.1047 20.3514 61.7775 22.1966H66.5938C66.5938 19.2468 65.1835 16.6291 63.0018 14.9809C61.4856 13.8445 59.6054 13.1685 57.5678 13.1685C52.5825 13.1685 48.5391 17.2102 48.5391 22.1966H52.7456C53.4184 20.3519 55.1837 19.0317 57.2616 19.0317Z" fill="#333951"/>
</svg>
